<svg xmlns="http://www.w3.org/2000/svg" width="12.476" height="87.216" viewBox="0 0 12.476 87.216">
  <path d="M2.142 81.522a2.868 2.868 0 0 0 .286 1.307 2.6 2.6 0 0 0 .826.955 3.917 3.917 0 0 0 1.3.585 6.816 6.816 0 0 0 1.718.2 6.651 6.651 0 0 0 2.2-.32 2.763 2.763 0 0 0 1.386-.992 2.929 2.929 0 0 0 .477-1.735 6.776 6.776 0 0 0-.166-1.482 14.24 14.24 0 0 0-.473-1.615h2.157a8 8 0 0 1 .477 1.585 9.615 9.615 0 0 1 .145 1.751 5.608 5.608 0 0 1-.775 3.086 4.617 4.617 0 0 1-2.175 1.785 8.47 8.47 0 0 1-3.266.581 8.1 8.1 0 0 1-2.523-.374 5.715 5.715 0 0 1-1.984-1.1 4.84 4.84 0 0 1-1.295-1.785A6.133 6.133 0 0 1 0 81.514 7.422 7.422 0 0 1 .228 79.7a9.168 9.168 0 0 1 .627-1.739l2.092.83a13.74 13.74 0 0 0-.564 1.37 4.086 4.086 0 0 0-.241 1.361ZM.175 65.966h7.853a4.633 4.633 0 0 1 2.262.552 3.934 3.934 0 0 1 1.6 1.668 5.98 5.98 0 0 1 .589 2.81 5.051 5.051 0 0 1-1.229 3.669 4.335 4.335 0 0 1-3.256 1.267H.175v-2.565h7.429a2.909 2.909 0 0 0 2.106-.619 2.486 2.486 0 0 0 .608-1.816 2.836 2.836 0 0 0-.291-1.374 1.738 1.738 0 0 0-.9-.776 4.1 4.1 0 0 0-1.54-.25H.174Zm12.135-7.653v2.573H2.316v3.3H.174v-9.164h2.142v3.3Zm0-15.107v2.565H7.072v4.806h5.238v2.573H.174v-2.573H4.93v-4.806H.174v-2.565ZM.174 40.143v-3.777a7.837 7.837 0 0 1 .681-3.669 2.489 2.489 0 0 1 2.391-1.245 3.36 3.36 0 0 1 1.245.22 2.291 2.291 0 0 1 .913.635 2.089 2.089 0 0 1 .465 1.013h.083a3.342 3.342 0 0 1 .427-1.1 2.158 2.158 0 0 1 .88-.784 3.383 3.383 0 0 1 1.531-.295 3.27 3.27 0 0 1 1.893.54 3.4 3.4 0 0 1 1.208 1.54 6.132 6.132 0 0 1 .419 2.381v4.541Zm4.806-2.574v-1.494a2.529 2.529 0 0 0-.353-1.552 1.267 1.267 0 0 0-1.042-.432 1.072 1.072 0 0 0-1 .51 3.281 3.281 0 0 0-.3 1.615v1.353Zm2.042 0h3.163v-1.676a2.292 2.292 0 0 0-.448-1.619 1.61 1.61 0 0 0-1.2-.457 1.532 1.532 0 0 0-.789.2 1.309 1.309 0 0 0-.538.668 3.517 3.517 0 0 0-.191 1.291Zm5.288-15.837v6.989H.174v-6.989h2.108v4.416h2.665v-4.109h2.108v4.109h3.129v-4.416ZM.174 15.664a7.941 7.941 0 0 1 .4-2.727 3.121 3.121 0 0 1 1.2-1.6 3.664 3.664 0 0 1 2.036-.521 3.174 3.174 0 0 1 1.453.316 3.312 3.312 0 0 1 1.054.83 4.906 4.906 0 0 1 .706 1.112l5.287-3.569v2.855l-4.657 2.9v1.37h4.657v2.57H.174Zm2.108.183v.78h3.279v-.83a3.034 3.034 0 0 0-.427-1.83 1.493 1.493 0 0 0-1.258-.552 1.328 1.328 0 0 0-1.229.594 3.6 3.6 0 0 0-.364 1.837ZM12.31 3.296v2.573H2.316v3.3H.174V.005h2.142v3.3Z" fill="#fff"/>
</svg>